<svg 
          width="7.608353137969971" 
          height="13.29168701171875" fill="none" 
          xmlns="http://www.w3.org/2000/svg">
          <path d="M 7.347148732225347 0.2601244198251866 C 7.2649011731972575 0.17766867400016034 7.167194259580951 0.11224898183277485 7.059624742811302 0.06761255981608166 C 6.952055226041653 0.022976137799388473 6.836735803340817 -6.291263919058267e-16 6.720272884759382 0 C 6.603809966177947 -6.291263919058267e-16 6.488491218996428 0.022976137799388473 6.380921702226779 0.06761255981608166 C 6.27335218545713 0.11224898183277485 6.175645947360142 0.17766867400016034 6.093398388332052 0.2601244198251866 L 0.2071479988765388 6.146374653758 C 0.14148298251776814 6.2119051680362585 0.08938679285702197 6.289743000462758 0.05384159172494913 6.375432446715584 C 0.018296390592876285 6.461121892968409 0 6.5529803083074345 0 6.645749608673955 C 0 6.738518909040476 0.018296390592876285 6.8303773243795005 0.05384159172494913 6.916066770632326 C 0.08938679285702197 7.001756216885151 0.14148298251776814 7.079594049311651 0.2071479988765388 7.145124563589909 L 6.093398388332052 13.031375641921873 C 6.440481733858754 13.37845898823618 7.000065386698645 13.37845898823618 7.347148732225347 13.031375641921873 C 7.694232077752049 12.684292295607566 7.694232077752049 12.124708641497865 7.347148732225347 11.777625295183558 L 2.2188148051455165 6.642207860881442 L 7.354230876755663 1.5067911020986446 C 7.694230874483263 1.1667911035995138 7.694232077752049 0.6001244183243173 7.347148732225347 0.2601244198251866 Z" fill="rgb(162.00000554323196,92.00000211596489,217.0000022649765)"/>
        </svg>